# File created by Blade
# Date/Time:  Tue Jan 27 19:18:50 2015
#---------------------------------------------------------
:version 1.10
:name HOM
:units
  mass 1.0
  length 1.000000
  angle deg
:documentation
     Acclaim Skeleton File
:root
   axis xyz
   order TX TY TZ RX RY RZ
   position 0.000000 0.000000 0.000000
   orientation 0 0 0
:bonedata
   begin
      id 1
      name Spine_dum
      direction 0.000000 1.000000 0.000000
      length 6.116652
      axis 0.0 0.0 0.0 xyz
   end
   begin
      id 2
      name LeftUpLeg_dum
      direction 1.000000 0.000000 0.000000
      length 4.711765
      axis 0.0 0.0 0.0 xyz
   end
   begin
      id 3
      name RightUpLeg_dum
      direction -1.000000 0.000000 0.000000
      length 4.711765
      axis 0.0 0.0 0.0 xyz
   end
   begin
      id 4
      name Spine
      direction 0.000000 1.000000 0.000000
      length 0.000000
      axis 0.0 0.0 0.0 xyz
      dof rx ry rz
   end
   begin
      id 5
      name Spine_dum1
      direction 0.000000 1.000000 0.000000
      length 15.225563
      axis 0.0 0.0 0.0 xyz
   end
   begin
      id 6
      name Spine_dum2
      direction 0.000000 1.000000 0.000000
      length 8.977654
      axis 0.0 0.0 0.0 xyz
   end
   begin
      id 7
      name Spine_dum3
      direction 0.000000 1.000000 0.000000
      length 8.977654
      axis 0.0 0.0 0.0 xyz
   end
   begin
      id 8
      name Head
      direction 0.000000 1.000000 0.000000
      length 4.527550
      axis 0.0 0.0 0.0 xyz
      dof rx ry rz
   end
   begin
      id 9
      name LeftShoulder
      direction 1.000000 0.000000 0.000000
      length 7.110130
      axis 0.0 0.0 -90.0 xyz
      dof rx ry rz
   end
   begin
      id 10
      name LeftArm
      direction 1.000000 0.000000 0.000000
      length 10.398341
      axis 0.0 0.0 -90.0 xyz
      dof rx ry rz
   end
   begin
      id 11
      name LeftForeArm
      direction 1.000000 0.000000 0.000000
      length 8.888997
      axis 0.0 0.0 -90.0 xyz
      dof ry rz rx
   end
   begin
      id 12
      name LeftHand
      direction 0.000000 0.000000 0.000000
      length 0.000000
      axis 0.0 0.0 -90.0 xyz
      dof rx ry rz
   end
   begin
      id 13
      name LeftHand_dum1
      direction 0.000000 0.000000 0.000000
      length 0.000000
      axis 0.0 0.0 -90.0 xyz
   end
   begin
      id 14
      name LeftHand_dum2
      direction 1.000000 0.000000 0.000000
      length 3.937000
      axis 0.0 0.0 -90.0 xyz
   end
   begin
      id 15
      name LeftHandThumb1
      direction 0.000000 0.000000 1.000000
      length 3.937000
      axis 0.0 0.0 -90.0 xyz
      dof rx rz ry
   end
   begin
      id 16
      name RightShoulder
      direction -1.000000 0.000000 0.000000
      length 7.110130
      axis 0.0 0.0 90.0 xyz
      dof rx ry rz
   end
   begin
      id 17
      name RightArm
      direction -1.000000 0.000000 0.000000
      length 10.398341
      axis 0.0 0.0 90.0 xyz
      dof rx ry rz
   end
   begin
      id 18
      name RightForeArm
      direction -1.000000 0.000000 0.000000
      length 8.888997
      axis 0.0 0.0 90.0 xyz
      dof ry rz rx
   end
   begin
      id 19
      name RightHand
      direction 0.000000 0.000000 0.000000
      length 0.000000
      axis 0.0 0.0 90.0 xyz
      dof rx ry rz
   end
   begin
      id 20
      name RightHand_dum1
      direction 0.000000 0.000000 0.000000
      length 0.000000
      axis 0.0 0.0 90.0 xyz
   end
   begin
      id 21
      name RightHand_dum2
      direction -1.000000 0.000000 0.000000
      length 3.937000
      axis 0.0 0.0 90.0 xyz
   end
   begin
      id 22
      name RightHandThumb1
      direction 0.000000 0.000000 1.000000
      length 3.937000
      axis 0.0 0.0 90.0 xyz
      dof rx rz ry
   end
   begin
      id 23
      name LeftUpLeg
      direction 0.000000 -1.000000 0.000000
      length 15.510451
      axis 0.0 0.0 0.0 xyz
      dof rx ry rz
   end
   begin
      id 24
      name LeftLeg
      direction 0.000000 -1.000000 0.000000
      length 14.858061
      axis 0.0 0.0 0.0 xyz
      dof rx ry rz
   end
   begin
      id 25
      name LeftFoot
      direction 0.000000 -0.258819 0.965926
      length 5.128852
      axis 15.0 0.0 0.0 xyz
      dof rx ry rz
   end
   begin
      id 26
      name LeftToeBase
      direction 0.000000 0.000000 1.000000
      length 2.952750
      axis 0.0 0.0 0.0 xyz
      dof rx ry rz
   end
   begin
      id 27
      name RightUpLeg
      direction 0.000000 -1.000000 0.000000
      length 15.510451
      axis 0.0 0.0 0.0 xyz
      dof rx ry rz
   end
   begin
      id 28
      name RightLeg
      direction 0.000000 -1.000000 0.000000
      length 14.858061
      axis 0.0 0.0 0.0 xyz
      dof rx ry rz
   end
   begin
      id 29
      name RightFoot
      direction 0.000000 -0.258819 0.965926
      length 5.128852
      axis 15.0 0.0 0.0 xyz
      dof rx ry rz
   end
   begin
      id 30
      name RightToeBase
      direction 0.000000 0.000000 1.000000
      length 2.952750
      axis 0.0 0.0 0.0 xyz
      dof rx ry rz
   end
:hierarchy
   begin
      root Spine_dum LeftUpLeg_dum RightUpLeg_dum
      Spine_dum Spine
      LeftUpLeg_dum LeftUpLeg
      RightUpLeg_dum RightUpLeg
      Spine Spine_dum1 Spine_dum2 Spine_dum3
      Spine_dum1 Head
      Spine_dum2 LeftShoulder
      Spine_dum3 RightShoulder
      LeftShoulder LeftArm
      LeftArm LeftForeArm
      LeftForeArm LeftHand
      LeftHand LeftHand_dum1 LeftHand_dum2
      LeftHand_dum1 LeftHandThumb1
      RightShoulder RightArm
      RightArm RightForeArm
      RightForeArm RightHand
      RightHand RightHand_dum1 RightHand_dum2
      RightHand_dum1 RightHandThumb1
      LeftUpLeg LeftLeg
      LeftLeg LeftFoot
      LeftFoot LeftToeBase
      RightUpLeg RightLeg
      RightLeg RightFoot
      RightFoot RightToeBase
   end

# File created by Blade
# Date/Time:  Tue Jan 27 19:18:41 2015
# Frame Rate: 120.000 fps
#------------------------------------------------------
:FULLY-SPECIFIED
:DEGREES
909
root 5.190441 32.311427 1.216283 0.157568 26.842524 4.130268
Spine -1.102365 27.365708 -1.424437
Head 7.685353 -28.510563 -19.916713
LeftShoulder -5.778498 -9.701829 19.859104
LeftArm -2.310644 37.525551 -98.696866
LeftForeArm 5.378228 -0.000000 12.166823
LeftHand 10.675240 -0.000000 -4.945556
LeftHandThumb1 -26.253704 0.000000 33.147579
RightShoulder 1.740662 21.460662 -43.946775
RightArm 67.652507 31.274472 133.197849
RightForeArm 30.551271 -0.000000 94.904546
RightHand 30.414926 -0.000000 -8.556312
RightHandThumb1 -24.326973 -0.000000 -32.862282
LeftUpLeg 4.851879 -16.644658 -4.946097
LeftLeg 2.937589 -0.000000 -0.000000
LeftFoot -11.522705 5.409833 -20.572522
LeftToeBase 18.047809 -0.000000 -0.000000
RightUpLeg 13.794516 -21.246134 -3.694516
RightLeg -3.711519 -0.000000 0.000000
RightFoot -18.062903 -24.009785 21.096590
RightToeBase 9.876110 -0.000000 -0.000000
910
root 5.194253 32.310832 1.219799 0.131673 26.866535 4.125171
Spine -1.098567 27.346015 -1.445216
Head 7.664439 -28.403999 -19.930591
LeftShoulder -5.792284 -9.665747 19.839997
LeftArm -2.366245 37.509236 -98.758596
LeftForeArm 5.292929 -0.000000 12.311058
LeftHand 10.689754 -0.000000 -4.983751
LeftHandThumb1 -26.253704 0.000000 33.147579
RightShoulder 1.692426 21.418444 -44.008023
RightArm 67.651447 31.160805 133.060908
RightForeArm 30.522554 -0.000000 94.927257
RightHand 30.434738 0.000000 -8.551177
RightHandThumb1 -24.326973 -0.000000 -32.862282
LeftUpLeg 4.875073 -16.641473 -4.950764
LeftLeg 2.956091 -0.000000 -0.000000
LeftFoot -11.537359 5.376682 -20.579390
LeftToeBase 17.992430 -0.000000 -0.000000
RightUpLeg 13.818454 -21.240711 -3.699291
RightLeg -3.685815 -0.000000 0.000000
RightFoot -18.077517 -24.047055 21.079208
RightToeBase 9.837184 -0.000000 -0.000000
911
root 5.199770 32.310147 1.224288 0.111271 26.881419 4.127108
Spine -1.116319 27.324766 -1.480195
Head 7.656068 -28.332464 -19.938880
LeftShoulder -5.795456 -9.617179 19.832922
LeftArm -2.424728 37.504423 -98.836235
LeftForeArm 5.194704 -0.000000 12.455980
LeftHand 10.712314 -0.000000 -5.113368
LeftHandThumb1 -26.253704 0.000000 33.147579
RightShoulder 1.666759 21.429543 -44.044550
RightArm 67.599129 31.106025 132.900383
RightForeArm 30.380191 -0.000000 94.935173
RightHand 30.359199 -0.000000 -8.326127
RightHandThumb1 -24.326973 -0.000000 -32.862282
LeftUpLeg 4.893657 -16.610115 -4.959103
LeftLeg 2.980492 -0.000000 -0.000000
LeftFoot -11.539914 5.318166 -20.585665
LeftToeBase 18.075046 -0.000000 -0.000000
RightUpLeg 13.843867 -21.249867 -3.717843
RightLeg -3.659460 -0.000000 0.000000
RightFoot -18.109903 -24.050170 21.108948
RightToeBase 9.904146 -0.000000 -0.000000
912
root 5.206680 32.309131 1.228541 0.086265 26.892815 4.131906
Spine -1.127250 27.304357 -1.504255
Head 7.646194 -28.221376 -19.937164
LeftShoulder -5.803439 -9.608711 19.826455
LeftArm -2.534397 37.539027 -98.958531
LeftForeArm 5.167070 -0.000000 12.585633
LeftHand 10.741770 -0.000000 -4.956390
LeftHandThumb1 -26.253704 0.000000 33.147579
RightShoulder 1.656092 21.430225 -44.088181
RightArm 67.543727 31.033732 132.694261
RightForeArm 30.117667 0.000000 94.947600
RightHand 30.339714 -0.000000 -8.420512
RightHandThumb1 -24.326973 -0.000000 -32.862282
LeftUpLeg 4.927899 -16.601703 -4.981136
LeftLeg 2.993325 -0.000000 -0.000000
LeftFoot -11.539794 5.295625 -20.568631
LeftToeBase 18.054832 -0.000000 -0.000000
RightUpLeg 13.879283 -21.250098 -3.744259
RightLeg -3.640739 -0.000000 0.000000
RightFoot -18.127811 -24.046359 21.118936
RightToeBase 9.871032 -0.000000 -0.000000
913
root 5.215059 32.308263 1.232482 0.064150 26.871579 4.142434
Spine -1.137419 27.315732 -1.522328
Head 7.645578 -28.110036 -19.971890
LeftShoulder -5.807153 -9.557275 19.809811
LeftArm -2.585467 37.623652 -99.047038
LeftForeArm 5.120203 -0.000000 12.689010
LeftHand 10.863772 -0.000000 -5.113576
LeftHandThumb1 -26.253704 0.000000 33.147579
RightShoulder 1.650332 21.475623 -44.134431
RightArm 67.469072 30.992566 132.500588
RightForeArm 29.925709 0.000000 94.921919
RightHand 30.259270 0.000000 -8.397036
RightHandThumb1 -24.326973 -0.000000 -32.862282
LeftUpLeg 4.976306 -16.582828 -5.014739
LeftLeg 2.986343 -0.000000 -0.000000
LeftFoot -11.559772 5.308466 -20.531210
LeftToeBase 18.088510 -0.000000 -0.000000
RightUpLeg 13.906426 -21.222335 -3.776580
RightLeg -3.618618 -0.000000 0.000000
RightFoot -18.164526 -24.035645 21.149577
RightToeBase 9.905245 -0.000000 -0.000000
914
root 5.221180 32.307387 1.237300 0.044918 26.871768 4.149724
Spine -1.167723 27.314465 -1.569436
Head 7.657950 -28.052139 -19.959999
LeftShoulder -5.816256 -9.524369 19.828363
LeftArm -2.637635 37.705435 -99.158870
LeftForeArm 5.111700 -0.000000 12.773786
LeftHand 10.792727 -0.000000 -5.134085
LeftHandThumb1 -26.253704 0.000000 33.147579
RightShoulder 1.658765 21.519862 -44.136421
RightArm 67.403661 30.972672 132.301142
RightForeArm 29.631581 -0.000000 94.893894
RightHand 30.168912 -0.000000 -8.435105
RightHandThumb1 -24.326973 -0.000000 -32.862282
LeftUpLeg 5.012408 -16.580770 -5.036201
LeftLeg 2.988050 -0.000000 -0.000000
LeftFoot -11.573715 5.304961 -20.537673
LeftToeBase 18.109814 -0.000000 -0.000000
RightUpLeg 13.940664 -21.288465 -3.814079
RightLeg -3.606428 -0.000000 0.000000
RightFoot -18.147158 -23.998576 21.103476
RightToeBase 9.849401 -0.000000 -0.000000
